<svg id="Layer_1" data-name="Layer 1" xmlns="http://www.w3.org/2000/svg" viewBox="0 0 3248.95 819.17"><defs><style>.cls-1{fill:#e94b1e;}.cls-2{fill:#003764;}</style></defs><title>Dubai Chambers</title><polygon class="cls-1" points="41 570.82 81.63 570.82 122.63 529.82 0 529.82 0 652.44 41 611.42 41 570.82"/><path class="cls-2" d="M877.65,702.82,921.3,570.39l43.64,132.43Zm18.54-173L793,814.39h47.83l23.39-71H978.35l23.39,71h47.84L946.42,529.82Zm1265.08,236.6L2088,529.82h-66.91V814.39h45.24V583.44l70,230.95h49.83l70-228.47V814.39h45.26V529.82h-66.92Zm226.51-531.8h-64.07c-31.32,0-52.24-25.55-52.24-56.84s20.92-54.87,52.24-54.87h64.07ZM2433,267V82H2323.71c-53.76,0-97.48,42-97.48,95.75a97.61,97.61,0,0,0,97.48,97.5h64c0,33.39-31.86,50.55-57,50.76H1697.41c-27.89-.21-56.81-20.49-56.85-53.74v-149l-45.24,45.34v85.85s-1.92,37.58,14.2,67.05c18.73,30.8,50.49,45.18,81,45.18h645.77c45.46,0,96.72-23.63,96.72-99.68M1407.1,570.54h41.52l30.51-40.72h-80.72c-86.82,0-138.44,55.88-138.44,142.29s51.62,142.28,138.44,142.28H1469V773.63H1407.1c-94.66,0-102-77.7-102-101.52s7.38-101.57,102-101.57M1073.66,814.39h45.24V506.78l-45.24,45.11Zm599-167h-118V530h-45.24V814.39h45.24V688.29h118v126.1h45.26V506.78l-45.26,45.67ZM696.46,773.79H619.09V687.17h77.37c24.16,0,39.28,19.2,39.28,43.2s-15.12,43.42-39.28,43.42M619.09,570.38h70.19c21.13,0,33.74,16.92,33.74,37.89s-12.61,38.3-33.74,38.3H619.09Zm127.26,92.29a78.63,78.63,0,0,0,21.93-54.4c0-43.27-32.54-78.45-79-78.45H573.83V814.39H697.4c46.18-.56,83.58-38,83.58-84a83.7,83.7,0,0,0-34.63-67.7m700.06-439c0-67.57-33.87-116.49-89.71-135L1321.37,124c69,13.43,79.78,78.26,79.78,99.69,0,24-12.2,102.41-106.79,102.6h-93.22v40.65h102.3c86.84-.12,143-56.31,143-143.25M475,696.79c0,48.92-21.82,81.29-72.88,81.45-51.06-.16-72.57-32.53-72.57-81.45V529.58H284.27V698.32c-.27,66.61,28.12,120.49,117.42,120.82v0c.16,0,.26,0,.41,0s.28,0,.4,0v0c89.31-.33,117.72-54.21,117.72-120.82V506.78L475,552.06Zm2761.51-8.9a71.94,71.94,0,0,0-15.72-16.55,74.66,74.66,0,0,0-22.07-11.41c-3.39-1-9-2.6-16.79-4.76s-15.87-4.37-24.06-6.66-15.63-4.37-22.24-6.27-10.43-3-11.39-3.23c-9.14-2.79-16.58-6.91-22.22-12.37s-8.49-13-8.49-22.64c0-5.93,1.85-9.9,4.51-14.69,3.84-7,12.08-14.64,27-17.3a87.66,87.66,0,0,1,15.86-1.35l63.49-.1,40.31-40.74H3143.78v0c-.36,0-.74,0-1.12,0a126.9,126.9,0,0,0-34.34,4.75A92.43,92.43,0,0,0,3078,549.22a74.85,74.85,0,0,0-21.52,24.91q-8.14,15-8.13,35.58a81.4,81.4,0,0,0,2.7,20.92,59,59,0,0,0,9.23,19.4,66.46,66.46,0,0,0,17.54,16.56q11,7.41,27.64,12,26.74,7.62,45,12.36a290.45,290.45,0,0,1,32,10.09,38,38,0,0,1,14.67,10.46q6.68,7.42,6.69,23a37.39,37.39,0,0,1-2.89,12.85,32,32,0,0,1-9.39,13.13,50.73,50.73,0,0,1-17,9.32,77.6,77.6,0,0,1-25.31,3.84h-93.49v40.75h93v-.07a149.86,149.86,0,0,0,35.24-4.68,98.48,98.48,0,0,0,32.9-15,77.75,77.75,0,0,0,23.32-26.43q8.85-16.15,8.85-39a76.14,76.14,0,0,0-3.07-21.3,70.06,70.06,0,0,0-9.39-20m-758.41,85.9h-77.35V687.17h77.35c24.16,0,39.25,19.2,39.25,43.2s-15.09,43.42-39.25,43.42m-77.35-203.41h70.2c21.11,0,33.73,16.92,33.73,37.89s-12.62,38.3-33.73,38.3h-70.2ZM2528,662.67a78.64,78.64,0,0,0,21.89-54.4c0-43.27-32.55-78.45-79-78.45H2355.49V814.39h123.56c46.17-.56,83.52-38,83.52-84a83.68,83.68,0,0,0-34.58-67.7M3158.59,326c-85.65-5.06-92.5-76.83-92.5-100,0-23.94,7.35-102.42,101.94-102.42h31.13l41.13-41H3159.4c-86.84,0-143,56.46-143,143.4,0,42.18,13.24,74.72,36.74,100H2583.12V58.94l-45.26,45.22V326.25c0,43.85-25.43,81.64-86.6,81.64v40.64c59.54,0,111.19-27.51,128.31-81.8H3249V326Zm-3003,210.07-35.34,35.35c69,13.43,79.8,78.25,79.8,99.7,0,24-12.2,102.4-106.82,102.58H0v40.65H102.29c86.85-.12,143-56.3,143-143.23,0-67.58-33.87-116.5-89.7-135M2740.46,570.5l40.33-40.68H2601.62V814.39h171.23V774H2646.9V687.17h113.39v-40.6H2646.9V570.5ZM576.33,123.32H595v0h.41V366.73h401c33.52,0,121.93-8.41,121.93-114.37V59.05l-45,44.83V257.7c0,54.92-47,68.34-74.82,68.34h-358V82.44H576.33a97.59,97.59,0,0,0-97.48,97.46c0,.58,0,1.16,0,32.13h0V326H140.28c-41.29,0-94.92-8.62-94.92-82.45V123.07L.11,168.21v81.42C.11,354.71,77.56,366.68,134,366.68H524L524.11,212v-.32c0-30.64,0-31.23,0-31.81,0-31.3,20.94-56.58,52.24-56.58m1249.09,579.5,43.65-132.43,43.64,132.43Zm18.54-173L1740.8,814.39h47.84l23.38-71h114.07l23.4,71h47.85L1894.19,529.82ZM2926.8,646.57h-70.19V570.39h70.19c21.1,0,33.75,16.92,33.75,37.89s-12.65,38.29-33.75,38.29m79-38.29c0-43.27-35.43-78.46-79-78.46l-.6,0v0H2811.37V814.39h45.24V687.17h51.62l60.86,127.22h49.6L2952.1,682.94c33.33-9,53.67-40.22,53.67-74.66M3204.5,0h-46V46h46ZM202.65,448.61h46v-46h-46ZM2433,0h-46V46h46ZM1118.39,402.6h-46v46h46Zm-800.86,0h-46v46h46Z"/><polygon class="cls-1" points="1242.16 123.31 1282.76 123.31 1323.79 82.31 1201.14 82.31 1201.14 204.93 1242.16 163.93 1242.16 123.31"/></svg>