<svg id="Layer_1" data-name="Layer 1" xmlns="http://www.w3.org/2000/svg" viewBox="0 0 1449.73 416.63"><defs><style>.cls-1{fill:#201e5b;}</style></defs><title>Dubai Multi Commodities Centre (DMCC)</title><path class="cls-1" d="M116.61,317.83H95.74V99.64h20.87c40.92,0,85.72,9.18,105.48,27.55,22.55,20.87,33.4,47.59,33.4,81.54,0,33.68-10.85,60.12-33.4,80.71a104.73,104.73,0,0,1-36.46,21.71c-14.47,4.18-46.75,6.68-69,6.68M96.57,7.24H0v403H95.74c71.8,0,256.05-7.23,256.05-201.5C351.51,147.51,325.35,7.24,96.57,7.24M978,92.68c89.34,0,126.35,55.94,126.35,55.94V35.07l-10.85-5.85C1057.87,10,1020.57,0,982.17,0,912.31,0,854.42,24.77,810.45,73.47c-35.91,39.8-54,85.72-54,136.66,0,56.77,21.71,106,64.85,146.39,42.86,39.8,95.74,60.11,156.41,60.11a243.25,243.25,0,0,0,115.78-29.22l11.13-5.84V274.14s-57.33,50.09-126.07,50.09c-33.68,0-61.51-10.85-84.89-32.84-23.38-22.26-34.79-49-34.79-81.82,0-33.12,11.41-60.4,34.79-83.22,23.1-22.82,50.66-33.67,84.33-33.67"/><path class="cls-1" d="M1323.1,92.68c89.34,0,126.35,55.94,126.35,55.94V35.07l-10.85-5.85C1403,10,1365.68,0,1327.27,0c-69.85,0-127.46,24.77-171.72,73.47-35.62,39.8-53.71,85.73-53.71,136.66,0,56.77,21.71,106,64.57,146.39,43.14,39.8,95.74,60.11,156.41,60.11a243.25,243.25,0,0,0,115.78-29.22l11.13-5.84V274.14s-57.33,50.09-126.07,50.09c-33.68,0-61.51-10.85-84.61-32.84-23.38-22.26-34.79-49-34.79-81.82,0-33.12,11.41-60.39,34.79-83.22,22.54-22.82,50.37-33.67,84-33.67M553.29,231.56,456.43,7.24H356.52v403h99.91V241l77.65,169.21H570l79.6-168.38V410.23h101V7.24H656Z"/></svg>