<svg id="Layer_1" data-name="Layer 1" xmlns="http://www.w3.org/2000/svg" viewBox="0 0 893.69 422.69"><defs><style>.cls-1{fill:#2e2e2e;}.cls-2{fill:#ffcd00;}</style></defs><title>Expo City Dubai</title><polygon class="cls-1" points="493.65 47.89 561.06 47.89 561.06 61.9 510.56 61.9 510.56 87.8 556.13 87.8 558.24 101.81 510.56 101.81 510.56 129.82 562.45 129.82 562.45 143.82 493.65 143.82 493.65 47.89"/><polygon class="cls-1" points="617.01 106.45 590.67 143.82 572.02 143.82 607.43 94.18 574.99 48.91 593.35 46.8 618.46 82.07 641.98 47.9 660.48 47.9 628.33 94.04 664.1 142.66 645.68 144.91 617.01 106.45"/><path class="cls-1" d="M753.43,79.6c0,18.94-13.28,31.86-36.93,31.86H692.4v32.29H675.5V47.89h41.07c23.73,0,36.93,13,36.93,31.71m-17.34,0c0-11.68-8.49-17.78-20.32-17.78H692.4v35.7h23.44c11.83,0,20.32-6.24,20.32-17.92"/><path class="cls-1" d="M762.29,95.86c0-27.36,18.57-49.34,51.22-49.34s51.09,22,51.09,49.34S846,145.2,813.51,145.2s-51.22-21.84-51.22-49.34m17.19,0c0,20.89,12.56,35.41,33.82,35.41s33.88-14.52,33.88-35.41S834.77,60.45,813.3,60.45,779.48,75,779.48,95.86"/><path class="cls-1" d="M537.84,264.93c-29.46,0-50.06-19-50.06-49.34s20.6-49.35,50.79-49.35c13.93,0,23.58,3.12,32.15,8.06l-2.84,14.8a48.72,48.72,0,0,0-29-8.85c-20.17,0-33.81,13-33.81,35.41s13.64,35.41,33.16,35.41c10.16,0,22-2.69,31.71-9.28V257c-8.63,4.79-18.22,8.06-32.15,8.06"/><polygon class="cls-1" points="587.19 263.48 587.19 168.57 604.17 166.46 604.17 263.48 587.19 263.48"/><polygon class="cls-1" points="648.72 181.56 616.94 181.56 616.94 167.55 697.34 167.55 695.24 181.56 665.63 181.56 665.63 263.48 648.72 263.48 648.72 181.56"/><polygon class="cls-1" points="753.5 263.48 736.6 263.48 736.6 231.92 700.9 168.57 717.8 166.46 745.45 215.95 772.23 167.55 790.15 167.55 753.5 232.21 753.5 263.48"/><path class="cls-1" d="M493.65,287.28h35.41c32.15,0,51.09,20.61,51.09,48s-18.87,48-51.09,48H493.65Zm69.08,48c0-20.9-12.69-34-33.74-34H510.56v68H529c21,0,33.74-13.13,33.74-33.95"/><path class="cls-1" d="M608.74,286.12v58.77c0,15.82,7.47,25.69,25.1,25.69s25-9.87,25-25.69V288.22l16.9-2.1v62.05c0,19.29-12.83,36.34-41.87,36.34s-42-17.77-42-36.34V288.22l16.91-2.1"/><path class="cls-1" d="M763.8,312.9c0,9.14-4.35,17.34-14.22,20.6,12,2.54,17.06,11.83,17.06,22.57,0,18.86-11.83,27.07-34.84,27.07H688.34V287.21h39.91c23,0,35.55,8.05,35.55,25.69m-17.19,1.59c0-10.59-7.47-13.28-19-13.28H705.32v26.34H727.6c11.54,0,19-2.4,19-13.13m-41.36,54.71h25.83c11.54,0,18.36-3.55,18.36-14.08s-6.75-14.22-18.36-14.22H705.25v28.3Z"/><path class="cls-1" d="M841.67,362.31H795.52l-8.2,20.9H769.83l39.11-95.64,19.74-2.1,38.53,96.58L850.3,384.3l-8.55-22Zm-5.52-13.93-17.49-44.84L801,348.38Z"/><polygon class="cls-1" points="876.79 288.22 876.79 383.13 893.7 383.13 893.7 286.12 876.79 288.22"/><path class="cls-2" d="M323.64,221l-4.72,4.65a4.44,4.44,0,0,0-.88,5.44L321.1,237a8.88,8.88,0,0,0,6.46,4.21,8.55,8.55,0,0,0,2,.15h.64a3.3,3.3,0,0,0,1.24-.22,2.17,2.17,0,0,0,.65-.14c.44-.15.8-.3,1.17-.44l.5-.22a6.11,6.11,0,0,0,1.38-1l4.71-4.65a4.43,4.43,0,0,0,.88-5.44l-3.05-5.88a8.7,8.7,0,0,0-6.53-4.21,13.43,13.43,0,0,0-1.67-.14,8,8,0,0,0-5.8,2.1"/><path class="cls-2" d="M327.84,181.63h-.14a8.63,8.63,0,0,0-6.53,4.21l-3.05,5.88a4.44,4.44,0,0,0,.87,5.44l4.72,4.64a9.63,9.63,0,0,0,14.07-2.17l3.05-5.88a4.35,4.35,0,0,0,.08-4.21,3.68,3.68,0,0,0-1-1.24l-4.71-4.64a7.13,7.13,0,0,0-1.39-1l-.42-.22a6.18,6.18,0,0,0-1.24-.5,1.34,1.34,0,0,1-.51-.14,7.11,7.11,0,0,0-1.38-.22h-1a9.25,9.25,0,0,0-1.39.07"/><path class="cls-2" d="M93.1,181.41h-.51a4.59,4.59,0,0,0-1.45.22.73.73,0,0,0-.51.14,12.46,12.46,0,0,0-1.3.51c-.15,0-.29.14-.44.21a5.26,5.26,0,0,0-1.38,1l-4.72,4.65a4.42,4.42,0,0,0-.86,5.44l3,5.88a9.67,9.67,0,0,0,1.1,1.52,3.53,3.53,0,0,0,.57.44,4.54,4.54,0,0,0,1,.79c.22.15.51.22.72.37a9.6,9.6,0,0,0,1.09.58l.73.22a7.72,7.72,0,0,0,1.38.36,8.75,8.75,0,0,0,7.54-2l4.72-4.64a4.43,4.43,0,0,0,.87-5.44l-3-5.88a8.84,8.84,0,0,0-6.53-4.21h-.15a10,10,0,0,0-1.45-.15H93.1"/><path class="cls-2" d="M91.58,218.85h0A9,9,0,0,0,85,223.06l-3,5.88a4.41,4.41,0,0,0,.87,5.44L87.52,239a6.35,6.35,0,0,0,1.37,1l.44.21a6.23,6.23,0,0,0,1.23.52,1.76,1.76,0,0,1,.58.14l1.31.22h.65a16.17,16.17,0,0,0,1.81-.07h.15a8.7,8.7,0,0,0,6.53-4.21l3-5.88a4.42,4.42,0,0,0-.87-5.44l-4.72-4.65a8.34,8.34,0,0,0-5.88-2.1,6.35,6.35,0,0,0-1.59.14"/><path class="cls-2" d="M316.89,146.07h0a10.25,10.25,0,0,0-4.06,1.09c-2.62,1.31-4.58,3.63-4.94,6l-1.09,6.53a4.5,4.5,0,0,0,2.47,4.94l5.88,3c2.1,1.09,5.15.88,7.76-.44a8.71,8.71,0,0,0,4.93-6l1.1-6.52a4.5,4.5,0,0,0-2.47-4.94l-5.88-3a6.38,6.38,0,0,0-1.67-.59h-.29a9.36,9.36,0,0,0-1.38-.14H317"/><path class="cls-2" d="M153.4,93.68a2.42,2.42,0,0,0-.58.07,3.55,3.55,0,0,0-.8.22c-.14,0-.29.15-.51.22a8.32,8.32,0,0,0-.73.5c-.07.07-.21.15-.35.29a6.9,6.9,0,0,0-.8,1.17l-3,5.88a8.68,8.68,0,0,0,.44,7.76,9.06,9.06,0,0,0,6,4.93l6.53,1.09a4.46,4.46,0,0,0,4.93-2.47l3-5.87a8.72,8.72,0,0,0-.44-7.77,9.54,9.54,0,0,0-4.28-4.35,8.31,8.31,0,0,0-1.74-.59l-6.53-1.08h-1.23"/><path class="cls-2" d="M191.57,318l-5.88,3a8.76,8.76,0,0,0-4.21,6.54,9,9,0,0,0,2,7.54l4.65,4.71a10.81,10.81,0,0,0,1.08.88s.15,0,.15.07a4.45,4.45,0,0,0,1.23.44h1.53a4.76,4.76,0,0,0,1.3-.44l5.88-3.05c2.18-1.09,3.77-3.63,4.28-6.53s-.29-5.8-2-7.47L196.94,319a4.63,4.63,0,0,0-3.27-1.45,4.93,4.93,0,0,0-2.17.58"/><path class="cls-2" d="M127.64,116l-6.53.94a4.47,4.47,0,0,0-3.92,3.92l-1,6.53a6.86,6.86,0,0,0,0,1.81c0,.15.07.22.07.37a11.56,11.56,0,0,0,.36,1.52c0,.15.15.29.22.44a7.1,7.1,0,0,0,.72,1.37,2.89,2.89,0,0,0,.44.51,12.35,12.35,0,0,0,.94,1.17,8.74,8.74,0,0,0,7.26,2.82l6.53-.93a4.49,4.49,0,0,0,3.92-3.92l1-6.54a8.78,8.78,0,0,0-2.83-7.25,12.26,12.26,0,0,0-1.52-1.24,2.06,2.06,0,0,0-.51-.29c-.36-.22-.79-.43-1.23-.65a3.89,3.89,0,0,1-.59-.22,7.75,7.75,0,0,0-1.15-.29,2.12,2.12,0,0,1-.66-.07h-1.45"/><path class="cls-2" d="M118.86,287.79a11.66,11.66,0,0,0-.94,1.16,2.84,2.84,0,0,1-.44.51,11.26,11.26,0,0,0-.65,1.3c-.08.22-.22.36-.29.58a5.25,5.25,0,0,0-.37,1.45,1.08,1.08,0,0,1-.14.44,7.82,7.82,0,0,0,0,1.81l.94,6.54a4.47,4.47,0,0,0,3.92,3.91l6.54,1s.64.07.93.07a8.8,8.8,0,0,0,5.23-2,12.77,12.77,0,0,0,1.09-.94,8.85,8.85,0,0,0,2.83-7.26l-.95-6.53a4.46,4.46,0,0,0-3.91-3.91l-6.54-1s-.64-.08-.94-.08a9.29,9.29,0,0,0-6.31,2.91"/><path class="cls-2" d="M258,309.19l-3,5.88a9,9,0,0,0,.36,7.77,8.57,8.57,0,0,0,6,4.93l6.53,1.09a4.52,4.52,0,0,0,4.93-2.47l3-5.87a8.74,8.74,0,0,0-.44-7.77,9.09,9.09,0,0,0-6-4.94l-6.53-1.08s-.58-.07-.87-.07a4.54,4.54,0,0,0-4.06,2.53"/><path class="cls-2" d="M296.5,285.18l-6.53.94a4.46,4.46,0,0,0-3.92,3.92l-1,6.53a8.83,8.83,0,0,0,2.83,7.25,7.52,7.52,0,0,0,1.16.95,2.51,2.51,0,0,0,.51.43,17.17,17.17,0,0,0,1.52.8c.15,0,.22.15.29.15a5.2,5.2,0,0,0,1.46.36,1,1,0,0,1,.43.15,8.44,8.44,0,0,0,1.88,0l6.54-1a4.48,4.48,0,0,0,3.92-3.92l1-6.53a8.89,8.89,0,0,0-2.84-7.26,9.24,9.24,0,0,0-6.31-2.89h-.94"/><path class="cls-2" d="M225.53,318.92l-4.65,4.71a9.08,9.08,0,0,0-2,7.56,2.51,2.51,0,0,0,.29,1,7.32,7.32,0,0,0,.29,1.09c.15.28.3.57.44.87a6.2,6.2,0,0,0,.51.94c.21.29.43.5.65.8s.36.51.58.72a5.77,5.77,0,0,0,1.52,1.09l5.88,3.05a4.6,4.6,0,0,0,1.31.44h.29a6.42,6.42,0,0,0,1.16,0h.07a2.47,2.47,0,0,0,1.23-.44.23.23,0,0,0,.15-.07,4,4,0,0,0,1.09-.88L239,335.1a6.74,6.74,0,0,0,1.1-1.46,2.54,2.54,0,0,0,.28-.79c.14-.36.29-.65.44-1a5.71,5.71,0,0,0,.14-1.08c0-.29.15-.59.15-.95v-2.18a8.63,8.63,0,0,0-4.21-6.52L231,318a4.94,4.94,0,0,0-2.25-.57,4.34,4.34,0,0,0-3.19,1.45"/><path class="cls-2" d="M159.57,306.65,153,307.74a8.81,8.81,0,0,0-6,4.86l-.43,1.09a3.66,3.66,0,0,0-.36.94c-.07.37-.14.73-.22,1.17,0,.29-.14.65-.14.94v2a7.1,7.1,0,0,0,.57,1.74l2.91,5.95a4.85,4.85,0,0,0,.8,1.16c.07.08.21.15.28.3a5.19,5.19,0,0,0,.73.57l.44.22a3.8,3.8,0,0,0,.79.29,1.29,1.29,0,0,1,.51.07h1.24l6.52-1.08a8.59,8.59,0,0,0,6-4.94,8.91,8.91,0,0,0,.43-7.76l-2.9-6a4.42,4.42,0,0,0-4.06-2.62h-.87"/><path class="cls-2" d="M191,81.42h-.15a2.6,2.6,0,0,0-1.23.43l-.14.07a6.9,6.9,0,0,0-1.17.8l-4.64,4.72a9,9,0,0,0-2,7.55,8.64,8.64,0,0,0,4.21,6.53l5.88,3a4.41,4.41,0,0,0,5.44-.87L201.8,99a9.06,9.06,0,0,0,2-7.55,8.16,8.16,0,0,0-.28-1.24l-.22-.86a6.1,6.1,0,0,0-.59-1.17c-.14-.22-.21-.5-.36-.72a8.1,8.1,0,0,0-.58-.73,5.64,5.64,0,0,0-.58-.73,7.19,7.19,0,0,0-1.45-1.08l-5.88-3.05a4.68,4.68,0,0,0-1.31-.43h-1.52"/><path class="cls-2" d="M315.15,255.21l-5.95,2.9a4.49,4.49,0,0,0-2.54,4.94l1.08,6.52a8.76,8.76,0,0,0,4.87,6,10.21,10.21,0,0,0,4.06,1.17,18.43,18.43,0,0,0,2-.07,4.49,4.49,0,0,0,1.74-.59l5.95-2.89a4.41,4.41,0,0,0,2.54-4.94l-1.09-6.54a5.57,5.57,0,0,0-.58-1.74,2.28,2.28,0,0,0-.29-.5,9.15,9.15,0,0,0-.72-1.16,7.17,7.17,0,0,0-.73-.73,8.15,8.15,0,0,0-.72-.72,7,7,0,0,0-1-.59,7.31,7.31,0,0,0-.87-.58,10.82,10.82,0,0,0-4.64-1.16,7,7,0,0,0-3.12.66"/><path class="cls-2" d="M293.81,116.1a4.33,4.33,0,0,0-.79.07,2.75,2.75,0,0,0-1,.29,1.76,1.76,0,0,0-.8.3,7.71,7.71,0,0,0-1.09.58c-.22.14-.44.21-.66.35a9.77,9.77,0,0,0-1.59,1.32,8.76,8.76,0,0,0-2.82,7.25l.93,6.53a4.47,4.47,0,0,0,3.92,3.92l6.54,1a9,9,0,0,0,7.25-2.75,11.85,11.85,0,0,0,.87-1.09c.15-.22.37-.37.51-.58a10.45,10.45,0,0,0,.58-1.16,2.37,2.37,0,0,0,.36-.73,5.32,5.32,0,0,0,.29-1.09c.08-.29.15-.51.22-.8a6.85,6.85,0,0,0,0-1.81l-.95-6.52a4.39,4.39,0,0,0-3.91-3.92l-6.53-1h-1.46"/><path class="cls-2" d="M230.75,81.49h-.28a4.4,4.4,0,0,0-1.31.44l-5.88,3A9.62,9.62,0,0,0,221,99l4.64,4.72a4.42,4.42,0,0,0,5.44.86l5.88-3a9.69,9.69,0,0,0,2.25-14.08l-4.64-4.72a10.45,10.45,0,0,0-1.09-.87s-.14,0-.14-.07a4.45,4.45,0,0,0-1.23-.44H230.9"/><path class="cls-2" d="M268.27,93.82l-6.53,1.09a8.62,8.62,0,0,0-6,4.93,8.73,8.73,0,0,0-.43,7.77l2.9,6a4.54,4.54,0,0,0,4.94,2.54l6.53-1.08a8.67,8.67,0,0,0,6-4.87,7.43,7.43,0,0,0,.44-1.08,5,5,0,0,0,.36-.88,7.36,7.36,0,0,0,.22-1.3c0-.22.15-.51.15-.73v-2a7.29,7.29,0,0,0-.59-1.74l-2.9-5.95a6.44,6.44,0,0,0-.8-1.16c-.07-.07-.22-.14-.29-.29a4.63,4.63,0,0,0-.73-.58l-.43-.22a3.22,3.22,0,0,0-.8-.29,1.16,1.16,0,0,1-.51-.08h-1.23"/><path class="cls-2" d="M104.28,146h-.36a10.91,10.91,0,0,0-1.67.51l-6,2.9a4.4,4.4,0,0,0-2.54,4.94l1.08,6.52a5.33,5.33,0,0,0,.58,1.74c0,.15.15.22.22.37a14.41,14.41,0,0,0,.8,1.31l.43.43a7.6,7.6,0,0,0,1.1,1,4,4,0,0,0,.57.36,10.69,10.69,0,0,0,1.24.79c2.61,1.32,5.66,1.53,7.76.51l5.95-2.9a4.56,4.56,0,0,0,2.54-4.93L114.94,153c-.36-2.39-2.25-4.63-4.93-6h-.07a8.78,8.78,0,0,0-1.89-.72H108a9.56,9.56,0,0,0-2-.29h-.37a8.1,8.1,0,0,0-1.3.07"/><path class="cls-2" d="M99.78,255.5a8.57,8.57,0,0,0-4.94,6l-1.08,6.53A4.48,4.48,0,0,0,96.22,273l5.88,3a6.24,6.24,0,0,0,1.74.58h.29a6.24,6.24,0,0,0,1.67.07,2.52,2.52,0,0,0,.72-.07,4.06,4.06,0,0,0,1.32-.22,4.78,4.78,0,0,0,.86-.36,9.21,9.21,0,0,0,1.17-.43,8.82,8.82,0,0,0,4.93-6l1.09-6.54a4.5,4.5,0,0,0-2.47-4.94l-5.88-3a7.56,7.56,0,0,0-3.2-.73,10,10,0,0,0-4.49,1.1"/><path class="cls-2" d="M386.11,256.08a8,8,0,0,0-.72.58,27.76,27.76,0,0,1-16.26,5.15c-1,0-2-.07-3.05-.14a27.58,27.58,0,0,1,12.56,14.94c.29.73.51,1.53.73,2.25a19.45,19.45,0,0,0,12.4,11.9c4.72,1.53,9,.95,12.7-1.81,3.41-2.54,6.17-6.74,8-12.27,1.45-4.34,5-19.08-8.56-23.43a19.09,19.09,0,0,0-6-.94,19.62,19.62,0,0,0-11.68,3.84"/><path class="cls-2" d="M391.63,132.07a19.61,19.61,0,0,0-12.41,12.11c-.15.51-.37,1.24-.58,1.89a28.28,28.28,0,0,1-12.62,15,27.7,27.7,0,0,1,18.86,4.65c.73.5,1.38,1,2,1.52a19.6,19.6,0,0,0,16.91,2.25c4.71-1.53,7.84-4.5,9.21-8.93,1.31-4.06,1-9.14-.72-14.58s-4.57-9.73-8-12.19a12.53,12.53,0,0,0-7.69-2.54,15.08,15.08,0,0,0-4.93.87"/><path class="cls-2" d="M358.25,80.26a19.57,19.57,0,0,0-8.06,14.87v.07c0,1,.08,1.89,0,2.69v.22a28.31,28.31,0,0,1-7.32,17.63A28.41,28.41,0,0,1,362,114.21h.22a1.17,1.17,0,0,0,.44.22c.64.22,1.3.44,2,.73A19.5,19.5,0,0,0,381.32,112c11.54-8.34,3.56-21.19.8-25-2-2.76-8-9.87-15.6-9.87a14.47,14.47,0,0,0-8.42,3"/><path class="cls-2" d="M310.57,41.29a19.5,19.5,0,0,0-3,16.9,12.83,12.83,0,0,1,.8,2.33,28.25,28.25,0,0,1-1.46,19.23,27.9,27.9,0,0,1,17.49-7.33h3.42a19.7,19.7,0,0,0,14.72-8.13c2.91-4.07,3.7-8.27,2.25-12.62-1.3-4.07-4.5-8-9.21-11.4-2.25-1.67-7.84-5.22-13.79-5.22-3.84,0-7.83,1.52-11.18,6.09"/><path class="cls-2" d="M51.74,78c-4.06,1.38-8,4.49-11.39,9.14s-5.16,9.36-5.23,13.64c0,4.57,2,8.35,6,11.32a19.84,19.84,0,0,0,17.06,3c.5-.22,1.23-.44,1.89-.66a28.21,28.21,0,0,1,19.52,1.38,27.84,27.84,0,0,1-7.4-17.92V95.28a19.53,19.53,0,0,0-8.13-15,14.19,14.19,0,0,0-8.42-3,12.16,12.16,0,0,0-4.21.73"/><path class="cls-2" d="M364.42,307.6h0a18.72,18.72,0,0,1-2,.65,26.6,26.6,0,0,1-7.84,1.16,29.61,29.61,0,0,1-11.68-2.54,28,28,0,0,1,7.4,18v2.61a19.47,19.47,0,0,0,8.13,15c4,2.91,8.27,3.7,12.62,2.25,4.06-1.3,8-4.5,11.4-9.21,2.68-3.7,10.66-16.55-.88-25a19.46,19.46,0,0,0-11.46-3.7,21.07,21.07,0,0,0-5.58.8"/><path class="cls-2" d="M308.18,362.82h0s-.22.73-.36,1.08a19.7,19.7,0,0,0,2.83,17.56c8.34,11.48,21.19,3.49,25,.81s15.23-12.49,6.9-23.95a19.44,19.44,0,0,0-15.4-8.06h-1.74A27.82,27.82,0,0,1,307,342.94a27.52,27.52,0,0,1,1.23,19.95"/><path class="cls-2" d="M10.38,146.07c-1.74,5.44-2,10.52-.73,14.59,1.38,4.35,4.5,7.33,9.22,8.85a19.47,19.47,0,0,0,17.05-2.4,15,15,0,0,1,1.89-1.38,28.47,28.47,0,0,1,18.86-4.64A27.79,27.79,0,0,1,44.05,146c-.22-.59-.36-1.16-.58-1.74v-.15a19.59,19.59,0,0,0-12.41-12,16.08,16.08,0,0,0-5-.8c-10,0-14.44,11-15.67,14.88"/><path class="cls-2" d="M41.22,310.57c-11.46,8.35-3.48,21.2-.8,25s12.48,15.23,23.94,6.89a19.57,19.57,0,0,0,8.06-15.38v-1.89a28.17,28.17,0,0,1,7.4-18.36,28.52,28.52,0,0,1-11.68,2.61,26.69,26.69,0,0,1-7.62-1.09,13.59,13.59,0,0,1-2.54-.87,17.62,17.62,0,0,0-5.15-.73,20.18,20.18,0,0,0-11.61,3.78"/><path class="cls-2" d="M18.87,253.25c-13.5,4.42-9.87,19.08-8.49,23.51,1.81,5.44,4.57,9.65,8,12.19,3.7,2.68,8,3.26,12.7,1.74a19.52,19.52,0,0,0,12.4-12c.15-.58.37-1.38.66-2.25a28,28,0,0,1,12.56-14.81c-1,.07-2,.22-3.06.22a27.91,27.91,0,0,1-16.25-5.15c-.15-.15-.29-.22-.36-.29s-.36-.29-.58-.44A19.84,19.84,0,0,0,25,252.3a19.56,19.56,0,0,0-6.1.95"/><path class="cls-2" d="M97.09,350.27h-.87a19.79,19.79,0,0,0-16,8.12c-8.35,11.54,3.19,21.27,7,23.95,4.65,3.41,9.36,5.15,13.64,5.23,4.58,0,8.35-2,11.25-6a19.39,19.39,0,0,0,2.83-17.34c-.15-.36-.29-.95-.51-1.46a27.91,27.91,0,0,1,1.31-19.81A27.74,27.74,0,0,1,97,350.27"/><path class="cls-2" d="M145.78,378.71h0c-.36.15-.72.22-1.16.36h-.14a19.37,19.37,0,0,0-12.34,12.56c-4.36,13.5,9.65,19.23,14,20.68s19.09,5,23.44-8.5a19.59,19.59,0,0,0-2.18-16.68c-.22-.29-.43-.51-.64-.8a2.06,2.06,0,0,1-.37-.44,14,14,0,0,1-.87-1.3A28.58,28.58,0,0,1,161.09,366a28.06,28.06,0,0,1-15.31,12.7"/><path class="cls-2" d="M146,10.38c-5.44,1.81-9.72,4.56-12.19,8-2.68,3.7-3.26,8-1.74,12.7a19.53,19.53,0,0,0,12,12.41c.66.22,1.23.43,1.74.58A28.09,28.09,0,0,1,161,56.74a27.8,27.8,0,0,1,4.64-18.86c.51-.73,1-1.38,1.53-2a19.57,19.57,0,0,0,2.25-16.91c-1.52-4.71-4.51-7.84-8.85-9.22a17.1,17.1,0,0,0-5.59-.8,29.86,29.86,0,0,0-9,1.53"/><path class="cls-2" d="M200.93,390.61h0l-1.52,1.09-.15.15a19.65,19.65,0,0,0-7.54,15.53,13.5,13.5,0,0,0,5.58,11.53c3.48,2.47,8.35,3.78,14.08,3.78,4.64,0,19.67-1.17,19.67-15.39A19.88,19.88,0,0,0,222.41,391a28.5,28.5,0,0,1-10.88-17,28.2,28.2,0,0,1-10.45,16.68"/><path class="cls-2" d="M15.31,191.71C1.09,191.71,0,206.81,0,211.45s1.09,19.66,15.31,19.66a19.36,19.36,0,0,0,15.6-7.76,11.07,11.07,0,0,1,1-1.38,28,28,0,0,1,16.76-10.52,27.91,27.91,0,0,1-16.9-10.74l-.44-.65a.08.08,0,0,0-.08-.08,19.8,19.8,0,0,0-16-8.12Z"/><path class="cls-2" d="M257,384.88h0c-.51.72-1,1.38-1.52,2a19.63,19.63,0,0,0-2.33,16.9,13.44,13.44,0,0,0,8.94,9.23c4.06,1.3,9.13,1,14.57-.73,4.43-1.45,18.37-7.18,13.94-20.69a19.71,19.71,0,0,0-12.05-12.4c-.5-.14-1.23-.36-1.89-.58a28,28,0,0,1-15-12.63A27.82,27.82,0,0,1,257,384.88"/><path class="cls-2" d="M407.3,191.64a19.48,19.48,0,0,0-15.6,7.76,11,11,0,0,1-.94,1.31A28.28,28.28,0,0,1,374,211.3a27.92,27.92,0,0,1,16.91,10.75c0,.07.07.14.14.22a2.13,2.13,0,0,1,.37.57,19.87,19.87,0,0,0,16,8.13,13.5,13.5,0,0,0,11.54-5.59c2.47-3.48,3.84-8.34,3.77-14.08,0-4.64-1.16-19.66-15.31-19.66Z"/><path class="cls-2" d="M262,9.65c-4.36,1.38-7.34,4.5-8.86,9.21a19.53,19.53,0,0,0,2.4,17.06,18.57,18.57,0,0,1,1.37,1.81,28.41,28.41,0,0,1,4.65,18.87A27.71,27.71,0,0,1,276.61,44a15.41,15.41,0,0,1,1.74-.51h.15a19.42,19.42,0,0,0,12-12.42c1.52-4.71.95-9-1.74-12.69-2.54-3.42-6.75-6.17-12.26-8a29.08,29.08,0,0,0-8.92-1.53,20,20,0,0,0-5.66.8"/><path class="cls-2" d="M211.31,0c-4.65,0-19.66,1.08-19.66,15.38A19.46,19.46,0,0,0,199.41,31a11.86,11.86,0,0,1,1.38,1,28.13,28.13,0,0,1,10.59,16.76,27.91,27.91,0,0,1,10.74-16.9l.65-.44v-.07a19.61,19.61,0,0,0,8.13-16c0-5-1.89-8.85-5.58-11.53C221.82,1.38,217,.07,211.24.07Z"/><path class="cls-2" d="M87.15,40.42c-3.77,2.75-15.24,12.48-6.89,24A19.58,19.58,0,0,0,95.64,72.5h1.82a28.07,28.07,0,0,1,18.28,7.32,27.74,27.74,0,0,1-1.45-19.3,24.44,24.44,0,0,1,.87-2.54,19.58,19.58,0,0,0-3-16.77c-3.34-4.49-7.25-6-11.17-6-6,0-11.54,3.56-13.79,5.23"/><path class="cls-2" d="M351.65,265.08a18,18,0,0,0-16.26,9.43,17.06,17.06,0,0,0-.65,13.86A20.38,20.38,0,0,0,345,299.61a21.63,21.63,0,0,0,9.65,2.33,20.8,20.8,0,0,0,5.66-.8c.58-.22,1.31-.43,2-.65,3.05-1.31,5-4.79,7-8.86s3.7-7.62,2.9-10.95c-.22-.66-.44-1.39-.65-2.1a20.66,20.66,0,0,0-10.23-11.26,21.77,21.77,0,0,0-9.65-2.31"/><path class="cls-2" d="M369.06,168.28a19.45,19.45,0,0,0-3.48.28,21.08,21.08,0,0,0-13.21,7.63,17.18,17.18,0,0,0-3.63,13.42c1.39,8.7,9.37,15,19,15a18.65,18.65,0,0,0,3.48-.29,20.66,20.66,0,0,0,12.84-7.18v-.22l.65-.73.88-1.23c1.81-2.9,1.3-7,.64-11.39-.71-4.65-1.52-8.35-4.06-10.6-.57-.36-1.23-.86-1.89-1.38A20.72,20.72,0,0,0,369,168.28"/><path class="cls-2" d="M306.8,363.47m-25.9,8.64a12,12,0,0,0,1.67.15c2.89,0,6-1.46,9.21-3.13,5.51-2.82,8-4.93,9-7.76v-.22c.07-.29.21-.58.28-.79a20.56,20.56,0,0,0-1.44-15.61c-3.48-6.89-10.38-11.32-17.56-11.32a16.42,16.42,0,0,0-7.62,1.81,17.43,17.43,0,0,0-8.71,10.82,21,21,0,0,0,1.67,15.16,20.5,20.5,0,0,0,11.47,10.23c.57.15,1.23.37,1.88.59"/><path class="cls-2" d="M344.82,123c-9.8,5-14,16.32-9.5,25.18a18,18,0,0,0,16.25,9.43,20.93,20.93,0,0,0,9.73-2.4,20.51,20.51,0,0,0,10.23-11.46c.22-.66.44-1.38.58-2,.72-3.26-.87-6.89-3-10.95-2.18-4.21-3.92-7.34-6.89-8.72a17.75,17.75,0,0,1-2.61-.87,20.16,20.16,0,0,0-5.08-.65,20.93,20.93,0,0,0-9.73,2.4"/><path class="cls-2" d="M41.8,250.71A21.41,21.41,0,0,0,57,254.12a21,21,0,0,0,13.2-7.62,17.24,17.24,0,0,0,3.64-13.42c-1.39-8.71-9.37-15-19-15a18.51,18.51,0,0,0-3.48.29,20.72,20.72,0,0,0-12.85,7.19v.21l-.65.73s-.51.8-.87,1.23c-1.82,2.91-1.31,7.05-.58,11.4.94,6.1,2.17,9.07,4.57,11l.87.66"/><path class="cls-2" d="M51.16,143.82a20.61,20.61,0,0,0,10.23,11.39A21.62,21.62,0,0,0,71,157.53c7.11,0,13.28-3.62,16.26-9.43,4.49-8.92.21-20.17-9.59-25.17a21.6,21.6,0,0,0-9.65-2.33,20.67,20.67,0,0,0-5.58.8,18.75,18.75,0,0,1-2,.65c-3.05,1.31-5,4.72-7,8.79s-3.56,7.39-3,10.58l.22.3v.58c.15.44.29.94.44,1.37"/><path class="cls-2" d="M62.91,301.43a20.09,20.09,0,0,0,5.23.66,21,21,0,0,0,9.72-2.4A20.67,20.67,0,0,0,88,288.37a17,17,0,0,0-.73-13.86A18,18,0,0,0,71,265.07a20.89,20.89,0,0,0-9.72,2.4,20.67,20.67,0,0,0-10.16,11.32,19.64,19.64,0,0,1-.65,2.25c-.73,3.12.94,6.75,3,10.74s4,7.47,7.12,8.77c.72.22,1.52.52,2.31.81"/><path class="cls-2" d="M348.82,233.15a17.17,17.17,0,0,0,3.7,13.42,21.24,21.24,0,0,0,28.29,4.21l.15-.14a3.14,3.14,0,0,1,.58-.44c2.54-2,3.77-4.93,4.8-11.17s.71-9.36-1-11.9l-.29-.44a2,2,0,0,0-.22-.29,20.68,20.68,0,0,0-13.49-8,28,28,0,0,0-3.41-.29c-9.65,0-17.7,6.32-19.08,15"/><path class="cls-2" d="M37.88,196.29a20.79,20.79,0,0,0,13.49,8.05,28.36,28.36,0,0,0,3.41.29c9.66,0,17.71-6.31,19.09-15a17.33,17.33,0,0,0-3.62-13.35A20.65,20.65,0,0,0,57,168.71a18.59,18.59,0,0,0-3.4-.29,20.46,20.46,0,0,0-11.47,3.41c-.51.44-1.16.94-1.88,1.45-2.4,2.11-3.2,6-3.92,10.53-1,6.17-.66,9.43,1.08,12v.15s.15.07.15.14a1.93,1.93,0,0,1,.14.36Z"/><path class="cls-2" d="M195.2,385.6m-21.91-3c2.17,2.32,5.65,3,10.3,3.77,5.88.95,9.07.73,11.39-.66.51-.35,1-.79,1.6-1.15a20.74,20.74,0,0,0,7.69-13.28c1.66-10.82-4.93-20.91-14.8-22.5a14.86,14.86,0,0,0-2.62-.22c-8.93,0-16.84,7.33-18.36,17.06a21,21,0,0,0,2.91,14.51,5.47,5.47,0,0,1,.86,1.09l.15.22a7.35,7.35,0,0,1,.73,1.08m25.25,8.35h0"/><path class="cls-2" d="M122.05,361.88c1.31,3.19,4.94,5.29,8.93,7.33,3.63,1.81,6.6,3,9.29,3a7.41,7.41,0,0,0,2.17-.29,8,8,0,0,1,1-.28h.14a21.36,21.36,0,0,0,13.29-25.55,17.25,17.25,0,0,0-8.71-10.81,16.35,16.35,0,0,0-7.55-1.82c-7.18,0-14.08,4.43-17.56,11.32a20.38,20.38,0,0,0-1.45,15.53,15,15,0,0,0,.5,1.46"/><path class="cls-2" d="M96.37,342.86h.72a20.64,20.64,0,0,0,14.59-6.17c7.76-7.76,8.35-19.8,1.23-26.84a17.17,17.17,0,0,0-12.27-4.93A21.2,21.2,0,0,0,79.82,325.3v1.89c.29,3.34,3,6.31,6.24,9.5,4.43,4.43,7.18,6.1,10.31,6.17"/><path class="cls-2" d="M324.72,79.82,311,86a20.86,20.86,0,0,0-6.17,13.86,16.93,16.93,0,0,0,17.2,18,21,21,0,0,0,14.66-6.25A20.66,20.66,0,0,0,342.87,98c0-.94-.08-1.81,0-2.61-.37-3.26-2.76-5.95-6.17-9.36s-5.95-5.73-9.07-6.1c-1,0-2,0-2.91-.07h-.14A21,21,0,0,0,311.16,86"/><path class="cls-2" d="M322,304.84a16.9,16.9,0,0,0-17.19,18,21.26,21.26,0,0,0,20.38,20h1.89c3.34-.22,6.31-3,9.58-6.25s5.88-6.09,6.16-9.5v-2.4A20.67,20.67,0,0,0,336.63,311,21.09,21.09,0,0,0,322,304.84"/><path class="cls-2" d="M235.69,348.6a10.55,10.55,0,0,0-2.62.22c-9.86,1.59-16.46,11.68-14.72,22.49a20.91,20.91,0,0,0,8.2,13.64,11.06,11.06,0,0,0,6.89,1.88,37.05,37.05,0,0,0,5.66-.5c4.65-.73,8.34-1.53,10.6-4.06a22.57,22.57,0,0,1,1.37-1.89,20.64,20.64,0,0,0,3.05-14.73c-1.53-9.72-9.44-17-18.36-17"/><path class="cls-2" d="M226.33,37.88a20.46,20.46,0,0,0-8,13.5,20.46,20.46,0,0,0,3.19,14.87,17.2,17.2,0,0,0,11.61,7.55,15.13,15.13,0,0,0,2.54.22c8.93,0,16.84-7.34,18.36-17.06a21.17,21.17,0,0,0-3.13-14.87c-.42-.51-.93-1.17-1.45-1.89-2.1-2.39-6-3.2-10.52-3.91a33.83,33.83,0,0,0-5.8-.59A10.68,10.68,0,0,0,227,37.3a3.59,3.59,0,0,0-.72.51"/><path class="cls-2" d="M278.86,51.16a21.24,21.24,0,0,0-13,25.32,17.09,17.09,0,0,0,8.71,10.88,15.73,15.73,0,0,0,7.54,1.82c7.18,0,14.08-4.42,17.56-11.39a20.91,20.91,0,0,0,1.6-15,14.62,14.62,0,0,1-.81-2.4c-1.3-3-4.71-4.85-8.77-7-3.12-1.6-6.39-3.13-9.21-3.13h-.66l-.15.37h-1.44c-.44.15-.95.29-1.39.44"/><path class="cls-2" d="M79.82,98a20.4,20.4,0,0,0,6.24,13.64,21.14,21.14,0,0,0,14.59,6.24,17.16,17.16,0,0,0,12.26-4.93,17.45,17.45,0,0,0,4.94-13,21.29,21.29,0,0,0-20.4-20H95.57c-3.34.22-6.32,3-9.58,6.17s-5.88,6.1-6.17,9.5V98"/><path class="cls-2" d="M171.61,42.31a21,21,0,0,0-3,14.72c1.52,9.73,9.43,17.06,18.36,17.06a10.39,10.39,0,0,0,2.6-.22,17.28,17.28,0,0,0,11.62-7.62,21.32,21.32,0,0,0-4.5-28.08l-.73-.29-.14-.36-.72-.51a10.55,10.55,0,0,0-5.38-1.23,45.62,45.62,0,0,0-6.1.58c-4.63.72-8.33,1.52-10.58,4.06a16.17,16.17,0,0,1-1.46,1.89"/><path class="cls-2" d="M121.26,62.91A20.94,20.94,0,0,0,123,77.79c3.48,6.89,10.37,11.32,17.56,11.32a16.46,16.46,0,0,0,7.62-1.82,17.18,17.18,0,0,0,8.71-10.88,20.77,20.77,0,0,0-1.68-15.09,20.53,20.53,0,0,0-11.46-10.24c-.72-.22-1.38-.43-2-.57a12.19,12.19,0,0,0-1.67-.15c-2.9,0-6,1.52-9.21,3.12-4,2-7.41,4-8.78,7-.22.72-.52,1.52-.8,2.39"/></svg>